<svg width="512" height="512" viewBox="0 0 512 512" fill="none" xmlns="http://www.w3.org/2000/svg">
<path d="M456 249C456 359.457 366.457 449 256 449C145.543 449 56 359.457 56 249C56 138.543 145.543 49 256 49C366.457 49 456 138.543 456 249ZM105.671 249C105.671 332.025 172.975 399.329 256 399.329C339.025 399.329 406.329 332.025 406.329 249C406.329 165.975 339.025 98.6708 256 98.6708C172.975 98.6708 105.671 165.975 105.671 249Z" fill="#52525B"/>
<rect x="222" y="273" width="68" height="176" rx="34" fill="#52525B"/>
<rect x="208" y="154" width="100" height="100" rx="50" fill="#52525B"/>
</svg>
