<svg width="428" height="94" viewBox="0 0 428 94" fill="none" xmlns="http://www.w3.org/2000/svg">
<g clip-path="url(#clip0_17_5)">
<rect width="428" height="94" fill="#161616"/>
<path d="M0.57429 56V1.70909H33.1276V7.54112H7.14858V25.8855H30.6888V31.7175H7.14858V56H0.57429ZM39.8345 56H32.9421L52.877 1.70909H59.6634L79.5983 56H72.7059L56.4823 10.2981H56.0581L39.8345 56ZM42.3793 34.7926H70.161V40.6246H42.3793V34.7926ZM129.19 18.675H122.616C122.227 16.784 121.547 15.1228 120.575 13.6913C119.621 12.2598 118.454 11.058 117.076 10.086C115.715 9.09633 114.204 8.35407 112.543 7.85923C110.881 7.36439 109.149 7.11697 107.347 7.11697C104.06 7.11697 101.082 7.9476 98.4132 9.60884C95.7623 11.2701 93.6504 13.7178 92.0775 16.9519C90.5223 20.186 89.7447 24.1536 89.7447 28.8545C89.7447 33.5555 90.5223 37.5231 92.0775 40.7572C93.6504 43.9913 95.7623 46.439 98.4132 48.1002C101.082 49.7615 104.06 50.5921 107.347 50.5921C109.149 50.5921 110.881 50.3447 112.543 49.8499C114.204 49.355 115.715 48.6216 117.076 47.6496C118.454 46.6599 119.621 45.4493 120.575 44.0178C121.547 42.5687 122.227 40.9074 122.616 39.0341H129.19C128.696 41.8087 127.794 44.2918 126.487 46.4832C125.179 48.6746 123.553 50.5391 121.609 52.0766C119.665 53.5965 117.482 54.7541 115.061 55.5493C112.658 56.3446 110.086 56.7423 107.347 56.7423C102.717 56.7423 98.5988 55.6112 94.9936 53.3491C91.3883 51.087 88.5518 47.8705 86.4841 43.6997C84.4164 39.5289 83.3825 34.5805 83.3825 28.8545C83.3825 23.1285 84.4164 18.1802 86.4841 14.0094C88.5518 9.83859 91.3883 6.62213 94.9936 4.36001C98.5988 2.09789 102.717 0.966829 107.347 0.966829C110.086 0.966829 112.658 1.36447 115.061 2.15975C117.482 2.95502 119.665 4.12143 121.609 5.65896C123.553 7.17883 125.179 9.03447 126.487 11.2259C127.794 13.3997 128.696 15.8827 129.19 18.675ZM104.59 56.2121H109.786L109.362 58.3328C110.74 58.5449 112.004 59.1193 113.152 60.0559C114.301 61.0102 114.875 62.5213 114.875 64.589C114.875 66.8688 113.93 68.7244 112.039 70.1559C110.166 71.6051 107.4 72.3297 103.742 72.3297L103.53 68.1942C105.173 68.1942 106.534 67.9292 107.612 67.399C108.708 66.8865 109.256 66.0205 109.256 64.8011C109.256 63.5816 108.805 62.751 107.904 62.3092C107.002 61.8674 105.544 61.5669 103.53 61.4079L104.59 56.2121ZM142.041 56H135.148L155.083 1.70909H161.87L181.805 56H174.912L158.689 10.2981H158.264L142.041 56ZM144.586 34.7926H172.367V40.6246H144.586V34.7926ZM211.256 56V1.70909H217.831V50.168H243.068V56H211.256ZM296.941 28.8545C296.941 34.5805 295.907 39.5289 293.839 43.6997C291.772 47.8705 288.935 51.087 285.33 53.3491C281.725 55.6112 277.607 56.7423 272.977 56.7423C268.346 56.7423 264.228 55.6112 260.623 53.3491C257.018 51.087 254.181 47.8705 252.114 43.6997C250.046 39.5289 249.012 34.5805 249.012 28.8545C249.012 23.1285 250.046 18.1802 252.114 14.0094C254.181 9.83859 257.018 6.62213 260.623 4.36001C264.228 2.09789 268.346 0.966829 272.977 0.966829C277.607 0.966829 281.725 2.09789 285.33 4.36001C288.935 6.62213 291.772 9.83859 293.839 14.0094C295.907 18.1802 296.941 23.1285 296.941 28.8545ZM290.579 28.8545C290.579 24.1536 289.792 20.186 288.219 16.9519C286.664 13.7178 284.552 11.2701 281.884 9.60884C279.233 7.9476 276.264 7.11697 272.977 7.11697C269.689 7.11697 266.712 7.9476 264.043 9.60884C261.392 11.2701 259.28 13.7178 257.707 16.9519C256.152 20.186 255.374 24.1536 255.374 28.8545C255.374 33.5555 256.152 37.5231 257.707 40.7572C259.28 43.9913 261.392 46.439 264.043 48.1002C266.712 49.7615 269.689 50.5921 272.977 50.5921C276.264 50.5921 279.233 49.7615 281.884 48.1002C284.552 46.439 286.664 43.9913 288.219 40.7572C289.792 37.5231 290.579 33.5555 290.579 28.8545ZM345.108 18.675C344.525 16.89 343.756 15.2907 342.802 13.8768C341.865 12.4453 340.743 11.2259 339.435 10.2186C338.145 9.2112 336.678 8.44243 335.035 7.91225C333.391 7.38206 331.588 7.11697 329.627 7.11697C326.41 7.11697 323.485 7.9476 320.852 9.60884C318.219 11.2701 316.125 13.7178 314.57 16.9519C313.014 20.186 312.237 24.1536 312.237 28.8545C312.237 33.5555 313.023 37.5231 314.596 40.7572C316.169 43.9913 318.299 46.439 320.985 48.1002C323.671 49.7615 326.693 50.5921 330.051 50.5921C333.161 50.5921 335.901 49.9294 338.269 48.6039C340.655 47.2608 342.51 45.3698 343.836 42.9309C345.179 40.4744 345.85 37.5849 345.85 34.2624L347.865 34.6866H331.535V28.8545H352.213V34.6866C352.213 39.1578 351.258 43.0458 349.35 46.3506C347.459 49.6555 344.843 52.218 341.503 54.0383C338.18 55.8409 334.363 56.7423 330.051 56.7423C325.244 56.7423 321.02 55.6112 317.38 53.3491C313.757 51.087 310.929 47.8705 308.897 43.6997C306.882 39.5289 305.875 34.5805 305.875 28.8545C305.875 24.56 306.449 20.6985 307.598 17.27C308.764 13.8238 310.408 10.8901 312.528 8.46894C314.649 6.04777 317.159 4.19212 320.057 2.902C322.955 1.61189 326.145 0.966829 329.627 0.966829C332.49 0.966829 335.158 1.39981 337.633 2.26578C340.124 3.11408 342.342 4.32466 344.286 5.89755C346.248 7.45275 347.883 9.31724 349.191 11.491C350.498 13.6471 351.4 16.0417 351.895 18.675H345.108ZM370.047 1.70909V56H363.472V1.70909H370.047ZM426.279 1.70909V56H419.917L390.333 13.3732H389.803V56H383.228V1.70909H389.591L419.281 44.442H419.811V1.70909H426.279Z" fill="#A3A3A3"/>
<path d="M0.602841 94V80.7636H5.07528C6.11368 80.7636 6.9625 80.9511 7.62173 81.3259C8.28528 81.6965 8.77647 82.1984 9.09531 82.8318C9.41416 83.4652 9.57358 84.1718 9.57358 84.9517C9.57358 85.7316 9.41416 86.4404 9.09531 87.0781C8.78078 87.7157 8.29389 88.2242 7.63466 88.6033C6.97543 88.9782 6.13092 89.1656 5.10114 89.1656H1.89545V87.7437H5.04943C5.76037 87.7437 6.33127 87.621 6.76215 87.3754C7.19302 87.1298 7.5054 86.798 7.69929 86.38C7.89749 85.9578 7.99659 85.4817 7.99659 84.9517C7.99659 84.4217 7.89749 83.9478 7.69929 83.5298C7.5054 83.1119 7.19086 82.7844 6.75568 82.5474C6.3205 82.3062 5.74313 82.1855 5.02358 82.1855H2.20568V94H0.602841ZM11.3477 94H9.66729L14.5275 80.7636H16.1821L21.0423 94H19.3619L15.4065 82.8577H15.3031L11.3477 94ZM11.9681 88.8295H18.7414V90.2514H11.9681V88.8295ZM23.104 94V80.7636H27.5765C28.6105 80.7636 29.4594 80.9403 30.1229 81.2936C30.7864 81.6426 31.2776 82.123 31.5965 82.7349C31.9153 83.3467 32.0748 84.0426 32.0748 84.8224C32.0748 85.6023 31.9153 86.2939 31.5965 86.8971C31.2776 87.5003 30.7886 87.9743 30.1294 88.319C29.4701 88.6594 28.6278 88.8295 27.6023 88.8295H23.983V87.3818H27.5506C28.2572 87.3818 28.826 87.2784 29.2569 87.0716C29.692 86.8648 30.0066 86.5718 30.2005 86.1926C30.3987 85.8091 30.4978 85.3524 30.4978 84.8224C30.4978 84.2925 30.3987 83.8293 30.2005 83.4329C30.0023 83.0365 29.6856 82.7306 29.2504 82.5151C28.8152 82.2954 28.24 82.1855 27.5248 82.1855H24.7069V94H23.104ZM29.3344 88.054L32.5918 94H30.7304L27.5248 88.054H29.3344ZM35.2885 94H33.6081L38.4683 80.7636H40.1229L44.9831 94H43.3027L39.3473 82.8577H39.2439L35.2885 94ZM35.909 88.8295H42.6823V90.2514H35.909V88.8295ZM62.8147 84.9H61.2119C61.1171 84.439 60.9512 84.0339 60.7142 83.6849C60.4816 83.3359 60.1972 83.0429 59.8611 82.806C59.5293 82.5647 59.1609 82.3837 58.7559 82.2631C58.3509 82.1424 57.9286 82.0821 57.4892 82.0821C56.6877 82.0821 55.9617 82.2846 55.3111 82.6896C54.6648 83.0946 54.1499 83.6914 53.7664 84.4799C53.3873 85.2684 53.1977 86.2357 53.1977 87.3818C53.1977 88.5279 53.3873 89.4952 53.7664 90.2837C54.1499 91.0722 54.6648 91.669 55.3111 92.074C55.9617 92.479 56.6877 92.6815 57.4892 92.6815C57.9286 92.6815 58.3509 92.6212 58.7559 92.5006C59.1609 92.3799 59.5293 92.2011 59.8611 91.9641C60.1972 91.7228 60.4816 91.4277 60.7142 91.0787C60.9512 90.7254 61.1171 90.3204 61.2119 89.8636H62.8147C62.6941 90.5401 62.4743 91.1455 62.1555 91.6798C61.8366 92.214 61.4402 92.6686 60.9663 93.0435C60.4923 93.414 59.9602 93.6962 59.3699 93.8901C58.7839 94.084 58.157 94.181 57.4892 94.181C56.3603 94.181 55.3563 93.9052 54.4774 93.3537C53.5984 92.8022 52.9068 92.018 52.4027 91.0011C51.8986 89.9843 51.6465 88.7778 51.6465 87.3818C51.6465 85.9858 51.8986 84.7794 52.4027 83.7625C52.9068 82.7456 53.5984 81.9615 54.4774 81.4099C55.3563 80.8584 56.3603 80.5827 57.4892 80.5827C58.157 80.5827 58.7839 80.6796 59.3699 80.8735C59.9602 81.0674 60.4923 81.3518 60.9663 81.7266C61.4402 82.0972 61.8366 82.5496 62.1555 83.0839C62.4743 83.6138 62.6941 84.2192 62.8147 84.9ZM76.573 87.3818C76.573 88.7778 76.3209 89.9843 75.8168 91.0011C75.3127 92.018 74.6211 92.8022 73.7422 93.3537C72.8632 93.9052 71.8592 94.181 70.7304 94.181C69.6015 94.181 68.5976 93.9052 67.7186 93.3537C66.8396 92.8022 66.1481 92.018 65.6439 91.0011C65.1398 89.9843 64.8878 88.7778 64.8878 87.3818C64.8878 85.9858 65.1398 84.7794 65.6439 83.7625C66.1481 82.7456 66.8396 81.9615 67.7186 81.4099C68.5976 80.8584 69.6015 80.5827 70.7304 80.5827C71.8592 80.5827 72.8632 80.8584 73.7422 81.4099C74.6211 81.9615 75.3127 82.7456 75.8168 83.7625C76.3209 84.7794 76.573 85.9858 76.573 87.3818ZM75.0218 87.3818C75.0218 86.2357 74.8301 85.2684 74.4466 84.4799C74.0675 83.6914 73.5526 83.0946 72.902 82.6896C72.2556 82.2846 71.5318 82.0821 70.7304 82.0821C69.9289 82.0821 69.2029 82.2846 68.5523 82.6896C67.906 83.0946 67.3911 83.6914 67.0076 84.4799C66.6285 85.2684 66.4389 86.2357 66.4389 87.3818C66.4389 88.5279 66.6285 89.4952 67.0076 90.2837C67.3911 91.0722 67.906 91.669 68.5523 92.074C69.2029 92.479 69.9289 92.6815 70.7304 92.6815C71.5318 92.6815 72.2556 92.479 72.902 92.074C73.5526 91.669 74.0675 91.0722 74.4466 90.2837C74.8301 89.4952 75.0218 88.5279 75.0218 87.3818ZM89.7641 80.7636V94H88.213L81.0002 83.6074H80.8709V94H79.2681V80.7636H80.8192L88.0579 91.1821H88.1871V80.7636H89.7641ZM92.2475 82.1855V80.7636H102.175V82.1855H98.0126V94H96.4098V82.1855H92.2475ZM106.251 80.7636V94H104.649V80.7636H106.251ZM119.961 80.7636V94H118.41L111.197 83.6074H111.068V94H109.465V80.7636H111.016L118.255 91.1821H118.384V80.7636H119.961ZM131.855 80.7636H133.458V89.5276C133.458 90.4324 133.244 91.2403 132.818 91.9512C132.396 92.6578 131.799 93.2158 131.028 93.6251C130.256 94.0302 129.351 94.2327 128.313 94.2327C127.275 94.2327 126.37 94.0302 125.599 93.6251C124.827 93.2158 124.228 92.6578 123.802 91.9512C123.38 91.2403 123.168 90.4324 123.168 89.5276V80.7636H124.771V89.3983C124.771 90.0446 124.913 90.6198 125.198 91.1239C125.482 91.6237 125.887 92.018 126.413 92.3067C126.943 92.5911 127.576 92.7332 128.313 92.7332C129.05 92.7332 129.683 92.5911 130.213 92.3067C130.743 92.018 131.148 91.6237 131.428 91.1239C131.713 90.6198 131.855 90.0446 131.855 89.3983V80.7636ZM137.201 94H135.521L140.381 80.7636H142.036L146.896 94H145.216L141.26 82.8577H141.157L137.201 94ZM137.822 88.8295H144.595V90.2514H137.822V88.8295ZM148.958 94V80.7636H153.43C154.464 80.7636 155.313 80.9403 155.977 81.2936C156.64 81.6426 157.131 82.123 157.45 82.7349C157.769 83.3467 157.928 84.0426 157.928 84.8224C157.928 85.6023 157.769 86.2939 157.45 86.8971C157.131 87.5003 156.642 87.9743 155.983 88.319C155.324 88.6594 154.481 88.8295 153.456 88.8295H149.837V87.3818H153.404C154.111 87.3818 154.68 87.2784 155.111 87.0716C155.546 86.8648 155.86 86.5718 156.054 86.1926C156.252 85.8091 156.351 85.3524 156.351 84.8224C156.351 84.2925 156.252 83.8293 156.054 83.4329C155.856 83.0365 155.539 82.7306 155.104 82.5151C154.669 82.2954 154.094 82.1855 153.378 82.1855H150.561V94H148.958ZM155.188 88.054L158.446 94H156.584L153.378 88.054H155.188ZM165.718 94V80.7636H173.655V82.1855H167.321V86.658H173.06V88.0798H167.321V94H165.718ZM175.29 94H173.609L178.47 80.7636H180.124L184.984 94H183.304L179.349 82.8577H179.245L175.29 94ZM175.91 88.8295H182.684V90.2514H175.91V88.8295ZM197.075 84.9H195.472C195.378 84.439 195.212 84.0339 194.975 83.6849C194.742 83.3359 194.458 83.0429 194.122 82.806C193.79 82.5647 193.421 82.3837 193.016 82.2631C192.611 82.1424 192.189 82.0821 191.75 82.0821C190.948 82.0821 190.222 82.2846 189.572 82.6896C188.925 83.0946 188.41 83.6914 188.027 84.4799C187.648 85.2684 187.458 86.2357 187.458 87.3818C187.458 88.5279 187.648 89.4952 188.027 90.2837C188.41 91.0722 188.925 91.669 189.572 92.074C190.222 92.479 190.948 92.6815 191.75 92.6815C192.189 92.6815 192.611 92.6212 193.016 92.5006C193.421 92.3799 193.79 92.2011 194.122 91.9641C194.458 91.7228 194.742 91.4277 194.975 91.0787C195.212 90.7254 195.378 90.3204 195.472 89.8636H197.075C196.955 90.5401 196.735 91.1455 196.416 91.6798C196.097 92.214 195.701 92.6686 195.227 93.0435C194.753 93.414 194.221 93.6962 193.63 93.8901C193.044 94.084 192.418 94.181 191.75 94.181C190.621 94.181 189.617 93.9052 188.738 93.3537C187.859 92.8022 187.167 92.018 186.663 91.0011C186.159 89.9843 185.907 88.7778 185.907 87.3818C185.907 85.9858 186.159 84.7794 186.663 83.7625C187.167 82.7456 187.859 81.9615 188.738 81.4099C189.617 80.8584 190.621 80.5827 191.75 80.5827C192.418 80.5827 193.044 80.6796 193.63 80.8735C194.221 81.0674 194.753 81.3518 195.227 81.7266C195.701 82.0972 196.097 82.5496 196.416 83.0839C196.735 83.6138 196.955 84.2192 197.075 84.9ZM191.078 94.0517H192.344L192.241 94.5688C192.577 94.6205 192.885 94.7605 193.165 94.9888C193.445 95.2215 193.585 95.5899 193.585 96.094C193.585 96.6499 193.355 97.1023 192.894 97.4513C192.437 97.8046 191.763 97.9813 190.871 97.9813L190.819 96.973C191.22 96.973 191.552 96.9084 191.814 96.7791C192.081 96.6542 192.215 96.443 192.215 96.1457C192.215 95.8484 192.105 95.6459 191.885 95.5382C191.666 95.4305 191.31 95.3572 190.819 95.3185L191.078 94.0517ZM200.208 94H198.528L203.388 80.7636H205.043L209.903 94H208.222L204.267 82.8577H204.164L200.208 94ZM200.829 88.8295H207.602V90.2514H200.829V88.8295ZM217.083 94V80.7636H218.686V92.5781H224.839V94H217.083ZM237.974 87.3818C237.974 88.7778 237.722 89.9843 237.217 91.0011C236.713 92.018 236.022 92.8022 235.143 93.3537C234.264 93.9052 233.26 94.181 232.131 94.181C231.002 94.181 229.998 93.9052 229.119 93.3537C228.24 92.8022 227.549 92.018 227.045 91.0011C226.54 89.9843 226.288 88.7778 226.288 87.3818C226.288 85.9858 226.54 84.7794 227.045 83.7625C227.549 82.7456 228.24 81.9615 229.119 81.4099C229.998 80.8584 231.002 80.5827 232.131 80.5827C233.26 80.5827 234.264 80.8584 235.143 81.4099C236.022 81.9615 236.713 82.7456 237.217 83.7625C237.722 84.7794 237.974 85.9858 237.974 87.3818ZM236.422 87.3818C236.422 86.2357 236.231 85.2684 235.847 84.4799C235.468 83.6914 234.953 83.0946 234.303 82.6896C233.656 82.2846 232.932 82.0821 232.131 82.0821C231.33 82.0821 230.604 82.2846 229.953 82.6896C229.307 83.0946 228.792 83.6914 228.408 84.4799C228.029 85.2684 227.839 86.2357 227.839 87.3818C227.839 88.5279 228.029 89.4952 228.408 90.2837C228.792 91.0722 229.307 91.669 229.953 92.074C230.604 92.479 231.33 92.6815 232.131 92.6815C232.932 92.6815 233.656 92.479 234.303 92.074C234.953 91.669 235.468 91.0722 235.847 90.2837C236.231 89.4952 236.422 88.5279 236.422 87.3818ZM249.717 84.9C249.575 84.4648 249.387 84.0749 249.155 83.7302C248.926 83.3812 248.653 83.0839 248.334 82.8383C248.019 82.5927 247.662 82.4053 247.261 82.276C246.86 82.1467 246.421 82.0821 245.943 82.0821C245.158 82.0821 244.445 82.2846 243.803 82.6896C243.161 83.0946 242.651 83.6914 242.272 84.4799C241.892 85.2684 241.703 86.2357 241.703 87.3818C241.703 88.5279 241.894 89.4952 242.278 90.2837C242.661 91.0722 243.181 91.669 243.836 92.074C244.49 92.479 245.227 92.6815 246.046 92.6815C246.804 92.6815 247.472 92.52 248.049 92.1968C248.631 91.8693 249.084 91.4083 249.407 90.8137C249.734 90.2148 249.898 89.5103 249.898 88.7003L250.389 88.8037H246.408V87.3818H251.449V88.8037C251.449 89.8938 251.216 90.8417 250.751 91.6474C250.29 92.4532 249.652 93.0779 248.838 93.5217C248.028 93.9612 247.097 94.181 246.046 94.181C244.874 94.181 243.844 93.9052 242.957 93.3537C242.073 92.8022 241.384 92.018 240.888 91.0011C240.397 89.9843 240.152 88.7778 240.152 87.3818C240.152 86.3348 240.292 85.3933 240.572 84.5575C240.856 83.7173 241.257 83.002 241.774 82.4117C242.291 81.8214 242.903 81.369 243.609 81.0545C244.316 80.7399 245.094 80.5827 245.943 80.5827C246.641 80.5827 247.291 80.6882 247.894 80.8994C248.502 81.1062 249.043 81.4013 249.517 81.7848C249.995 82.164 250.393 82.6185 250.712 83.1485C251.031 83.6742 251.251 84.258 251.372 84.9H249.717ZM255.797 80.7636V94H254.194V80.7636H255.797ZM269.507 80.7636V94H267.956L260.743 83.6074H260.614V94H259.011V80.7636H260.562L267.801 91.1821H267.93V80.7636H269.507ZM288.329 80.7636V94H286.778L279.565 83.6074H279.436V94H277.833V80.7636H279.384L286.623 91.1821H286.752V80.7636H288.329ZM292.079 94H290.399L295.259 80.7636H296.914L301.774 94H300.093L296.138 82.8577H296.035L292.079 94ZM292.7 88.8295H299.473V90.2514H292.7V88.8295ZM308.954 94V80.7636H313.427C314.465 80.7636 315.314 80.9511 315.973 81.3259C316.637 81.6965 317.128 82.1984 317.447 82.8318C317.766 83.4652 317.925 84.1718 317.925 84.9517C317.925 85.7316 317.766 86.4404 317.447 87.0781C317.132 87.7157 316.645 88.2242 315.986 88.6033C315.327 88.9782 314.482 89.1656 313.453 89.1656H310.247V87.7437H313.401C314.112 87.7437 314.683 87.621 315.114 87.3754C315.544 87.1298 315.857 86.798 316.051 86.38C316.249 85.9578 316.348 85.4817 316.348 84.9517C316.348 84.4217 316.249 83.9478 316.051 83.5298C315.857 83.1119 315.542 82.7844 315.107 82.5474C314.672 82.3062 314.095 82.1855 313.375 82.1855H310.557V94H308.954ZM320.507 94V80.7636H322.11V92.5781H328.263V94H320.507ZM332.123 94H330.442L335.303 80.7636H336.957L341.817 94H340.137L336.182 82.8577H336.078L332.123 94ZM332.743 88.8295H339.516V90.2514H332.743V88.8295ZM341.609 82.1855V80.7636H351.536V82.1855H347.374V94H345.771V82.1855H341.609ZM353.006 94H351.326L356.186 80.7636H357.841L362.701 94H361.021L357.065 82.8577H356.962L353.006 94ZM353.627 88.8295H360.4V90.2514H353.627V88.8295ZM364.763 94V80.7636H372.699V82.1855H366.366V86.658H372.105V88.0798H366.366V94H364.763ZM386.613 87.3818C386.613 88.7778 386.361 89.9843 385.857 91.0011C385.353 92.018 384.661 92.8022 383.782 93.3537C382.903 93.9052 381.899 94.181 380.77 94.181C379.641 94.181 378.637 93.9052 377.758 93.3537C376.879 92.8022 376.188 92.018 375.684 91.0011C375.18 89.9843 374.928 88.7778 374.928 87.3818C374.928 85.9858 375.18 84.7794 375.684 83.7625C376.188 82.7456 376.879 81.9615 377.758 81.4099C378.637 80.8584 379.641 80.5827 380.77 80.5827C381.899 80.5827 382.903 80.8584 383.782 81.4099C384.661 81.9615 385.353 82.7456 385.857 83.7625C386.361 84.7794 386.613 85.9858 386.613 87.3818ZM385.062 87.3818C385.062 86.2357 384.87 85.2684 384.486 84.4799C384.107 83.6914 383.592 83.0946 382.942 82.6896C382.295 82.2846 381.572 82.0821 380.77 82.0821C379.969 82.0821 379.243 82.2846 378.592 82.6896C377.946 83.0946 377.431 83.6914 377.047 84.4799C376.668 85.2684 376.479 86.2357 376.479 87.3818C376.479 88.5279 376.668 89.4952 377.047 90.2837C377.431 91.0722 377.946 91.669 378.592 92.074C379.243 92.479 379.969 92.6815 380.77 92.6815C381.572 92.6815 382.295 92.479 382.942 92.074C383.592 91.669 384.107 91.0722 384.486 90.2837C384.87 89.4952 385.062 88.5279 385.062 87.3818ZM389.308 94V80.7636H393.78C394.814 80.7636 395.663 80.9403 396.327 81.2936C396.99 81.6426 397.482 82.123 397.8 82.7349C398.119 83.3467 398.279 84.0426 398.279 84.8224C398.279 85.6023 398.119 86.2939 397.8 86.8971C397.482 87.5003 396.993 87.9743 396.333 88.319C395.674 88.6594 394.832 88.8295 393.806 88.8295H390.187V87.3818H393.755C394.461 87.3818 395.03 87.2784 395.461 87.0716C395.896 86.8648 396.211 86.5718 396.404 86.1926C396.603 85.8091 396.702 85.3524 396.702 84.8224C396.702 84.2925 396.603 83.8293 396.404 83.4329C396.206 83.0365 395.89 82.7306 395.454 82.5151C395.019 82.2954 394.444 82.1855 393.729 82.1855H390.911V94H389.308ZM395.538 88.054L398.796 94H396.934L393.729 88.054H395.538ZM400.95 80.7636H402.863L407.361 91.7509H407.516L412.014 80.7636H413.927V94H412.428V83.9435H412.299L408.162 94H406.715L402.578 83.9435H402.449V94H400.95V80.7636ZM417.684 94H416.004L420.864 80.7636H422.518L427.379 94H425.698L421.743 82.8577H421.639L417.684 94ZM418.304 88.8295H425.078V90.2514H418.304V88.8295Z" fill="#737373"/>
</g>
<defs>
<clipPath id="clip0_17_5">
<rect width="428" height="94" fill="white"/>
</clipPath>
</defs>
</svg>
